<svg height="512" viewBox="0 0 64 64" width="512" xmlns="http://www.w3.org/2000/svg"><g id="Barrier-2" data-name="Barrier"><path d="m31 16h2v20h-2z"/><path d="m27 16h2v20h-2z"/><path d="m35 16h2v20h-2z"/><path d="m23 16h2v20h-2z"/><path d="m43 16h2v20h-2z"/><path d="m39 16h2v20h-2z"/><path d="m47 16h2v20h-2z"/><path d="m19 16h2v20h-2z"/><path d="m53 17a1 1 0 0 0 -1-1h-1v20h2z"/><path d="m8 49h8v2h-8z"/><path d="m51 41h2v6h-2z"/><path d="m15 16h2v20h-2z"/><path d="m48 49h8v2h-8z"/><path d="m11 41h2v6h-2z"/><path d="m13 16h-1a1 1 0 0 0 -1 1v19h2z"/><path d="m8 39h48v-23a3 3 0 0 0 -3-3h-42a3 3 0 0 0 -3 3zm1-22a3 3 0 0 1 3-3h40a3 3 0 0 1 3 3v20a1 1 0 0 1 -1 1h-44a1 1 0 0 1 -1-1z"/><path d="m4 23h-2v-4a1 1 0 0 1 1-1h3v2h-2z"/><path d="m4 37h-2v-4a1 1 0 0 1 1-1h3v2h-2z"/><path d="m62 23h-2v-3h-2v-2h3a1 1 0 0 1 1 1z"/><path d="m62 37h-2v-3h-2v-2h3a1 1 0 0 1 1 1z"/></g></svg>