<svg height="512" viewBox="0 0 64 64" width="512" xmlns="http://www.w3.org/2000/svg"><path d="m6 39h4v22h-4z"/><path d="m23.586 27h-8.172l-10 10h8.172z"/><path d="m4 35.586 8.586-8.586h-8.586z"/><path d="m60 28.414-8.586 8.586h8.586z"/><path d="m12 49h40v2h-40z"/><path d="m54 39h4v22h-4z"/><path d="m28.414 37h9.172l10-10h-9.172z"/><path d="m25.586 37 10-10h-9.172l-10 10z"/><path d="m50.414 27-10 10h8.172l10-10z"/><path d="m25 24v1h14v-1a1 1 0 0 0 -1-1h-12a1 1 0 0 0 -1 1z"/><path d="m27 21h10v-5a5 5 0 0 0 -10 0z"/><path d="m31 2h2v4h-2z"/><path d="m22.515 5.515h2v4h-2z" transform="matrix(.707 -.707 .707 .707 1.574 18.828)"/><path d="m18 15h4v2h-4z"/><path d="m42 15h4v2h-4z"/><path d="m38.486 6.515h4v2h-4z" transform="matrix(.707 -.707 .707 .707 6.544 30.828)"/></svg>