<svg height="512" viewBox="0 0 64 64" width="512" xmlns="http://www.w3.org/2000/svg"><path d="m32 14c1.565 0 3.032-.026 4.381-.075l-1.8-6.636a5.051 5.051 0 0 1 -5.168 0l-1.8 6.636c1.355.049 2.822.075 4.387.075z"/><ellipse cx="32" cy="5" rx="2" ry="1"/><path d="m15.382 51.455-8.482 2.457 25.1 6.059 25.1-6.059-8.484-2.457.347 1.284a1 1 0 0 1 .037.261c0 1.082-.91 1.822-5.561 2.405a97.036 97.036 0 0 1 -11.439.595 97.036 97.036 0 0 1 -11.439-.595c-4.651-.583-5.561-1.323-5.561-2.405a1 1 0 0 1 .035-.261z"/><path d="m25.48 21.824a126.6 126.6 0 0 0 13.04 0l-1.6-5.92c-1.5.062-3.144.1-4.917.1s-3.416-.034-4.917-.1z"/><path d="m42.759 37.474-1.581-5.838c-2.7.235-5.841.364-9.178.364s-6.473-.129-9.178-.364l-1.581 5.838a98.2 98.2 0 0 0 10.759.526 98.2 98.2 0 0 0 10.759-.526z"/><path d="m17.12 52.69c1.466.594 6.923 1.31 14.88 1.31s13.414-.716 14.88-1.31l-1.512-5.581a58.84 58.84 0 0 1 -7.349.74c-1.851.1-3.874.151-6.019.151s-4.168-.051-6.014-.151a59.044 59.044 0 0 1 -7.354-.74z"/><path d="m23.354 29.673c2.567.21 5.512.327 8.646.327s6.079-.117 8.646-.327l-1.591-5.873c-2.181.131-4.592.2-7.055.2s-4.874-.073-7.055-.2z"/><path d="m19.156 45.171a57.907 57.907 0 0 0 6.923.68c1.826.1 3.813.149 5.921.149s4.095-.05 5.906-.148a58.143 58.143 0 0 0 6.938-.681l-1.557-5.749a98.122 98.122 0 0 1 -11.287.578 98.122 98.122 0 0 1 -11.287-.578z"/></svg>