<svg fill="#ffffff" height="512" viewBox="0 0 64 64" width="512" xmlns="http://www.w3.org/2000/svg"><path d="m12 14h2v2h-2z"/><path d="m4 10h40v2h-40z"/><path d="m46 18.281v3.101l4.135-2.068z"/><path d="m46 24.281v3.101l4.135-2.068z"/><path d="m46 36.281v3.101l4.135-2.068z"/><path d="m46 30.281v3.101l4.135-2.068z"/><path d="m46 48.281v3.101l4.135-2.068z"/><path d="m44 60v-7.697l-5.132 7.697z"/><path d="m4 60h32.465l1.333-2h-33.798z"/><path d="m4 36h8v2h-8z"/><path d="m14 36h8v2h-8z"/><path d="m12 26h2v2h-2z"/><path d="m12 26h2v2h-2z"/><path d="m46 42.281v3.101l4.135-2.068z"/><path d="m46 4h6v4h-6z"/><path d="m46 54.281v3.101l4.135-2.068z"/><path d="m54 60h5.132l-5.132-7.697z"/><path d="m46 16.219 6 1.5v-3.719h-6z"/><path d="m54 10h6v2h-6z"/><path d="m46 10h6v2h-6z"/><path d="m52 53.719v-3.101l-4.135 2.068z"/><path d="m46 60h6v-3.382l-6 3z"/><path d="m52 23.719v-3.101l-4.135 2.068z"/><path d="m52 47.719v-3.101l-4.135 2.068z"/><path d="m52 41.719v-3.101l-4.135 2.068z"/><path d="m52 29.719v-3.101l-4.135 2.068z"/><path d="m52 35.719v-3.101l-4.135 2.068z"/><path d="m12 17h2v7h-2z"/><path d="m11.33 30-5.33 4h-3.33l7.33-5.5v1.5z"/><path d="m23.33 34h-3.33l-5.33-4h1.33v-1.5z"/><path d="m12 30h2v4h-2z"/><path d="m44 4.12v2.01l-14.96 1.87h-16.08z"/><path d="m59.3 8h-3.59l-1.71-1.14v-2.39z"/></svg>