<svg height="512" viewBox="0 0 64 64" width="512" xmlns="http://www.w3.org/2000/svg"><path d="m14 4h2v6h-2z"/><path d="m8 56h14v-20.556a3.959 3.959 0 0 1 -2 .556 4 4 0 0 1 0-8 3.959 3.959 0 0 1 2 .556v-16.556h-14zm4.793-42.742 4.243 4.242-1.414 1.414-4.243-4.242zm-2.122 2.121 4.243 4.242-1.414 1.414-4.243-4.242z"/><circle cx="44" cy="32" r="2"/><path d="m48 4h2v6h-2z"/><path d="m42 56h14v-44h-14v16.556a3.959 3.959 0 0 1 2-.556 4 4 0 0 1 0 8 3.959 3.959 0 0 1 -2-.556zm12.743-39.207-4.243 4.242-1.414-1.414 4.243-4.242zm-7.779.707 4.243-4.242 1.414 1.414-4.243 4.242z"/><circle cx="20" cy="32" r="2"/><path d="m18 4h28v2h-28z"/><path d="m60 8h-8v2h5a1 1 0 0 1 1 1v46a1 1 0 0 1 -1 1h-16a1 1 0 0 1 -1-1v-46a1 1 0 0 1 1-1h5v-2h-8v52h22z"/><path d="m52 4h8v2h-8z"/><path d="m4 60h22v-52h-8v2h5a1 1 0 0 1 1 1v46a1 1 0 0 1 -1 1h-16a1 1 0 0 1 -1-1v-46a1 1 0 0 1 1-1h5v-2h-8z"/><path d="m4 4h8v2h-8z"/></svg>