<svg height="512" viewBox="0 0 64 64" width="512" xmlns="http://www.w3.org/2000/svg"><path d="m15 54h20v2h-20z"/><path d="m12 60h26a1 1 0 0 0 1-1v-8a1 1 0 0 0 -1-1h-26a1 1 0 0 0 -1 1v8a1 1 0 0 0 1 1zm1-7a1 1 0 0 1 1-1h22a1 1 0 0 1 1 1v4a1 1 0 0 1 -1 1h-22a1 1 0 0 1 -1-1z"/><path d="m42 7h4v2h-4z"/><path d="m24.935 32h4.065v-6h-3.142z"/><path d="m23.835 26h-8.835v22h8.8l-1.6-8.831a6.979 6.979 0 0 1 -.031-2.316zm-4.835 20h-2v-18h2z"/><path d="m42 11h4v2h-4z"/><path d="m54 13v2h3.697l1.5-1-1.5-1z"/><path d="m48 11h4v6h-4z"/><path d="m42 15h4v2h-4z"/><path d="m42 19h4v2h-4z"/><path d="m34 9h2v4h-2z"/><path d="m40 4h-26a10 10 0 0 0 0 20h26zm-17 16a1 1 0 0 1 -1 1h-12a1 1 0 0 1 -1-1v-12a1 1 0 0 1 1-1h12a1 1 0 0 1 1 1zm15 0a1 1 0 0 1 -1 1h-4a1 1 0 0 1 -1-1v-12a1 1 0 0 1 1-1h4a1 1 0 0 1 1 1z"/><path d="m11 9h10v1.979h-10z"/><path d="m34 15h2v4h-2z"/><path d="m11 12.979h10v2h-10z"/><path d="m11 16.979h10v2.021h-10z"/></svg>