<svg height="512" viewBox="0 0 64 64" width="512" xmlns="http://www.w3.org/2000/svg"><path d="m30 44h4v2h-4z"/><path d="m44 44h4v2h-4z"/><path d="m16 28h4v2h-4z"/><path d="m58 28h2v2h-2z"/><path d="m36 19.3v30.7h6v-30.7l-3-4.5zm4 28.7h-2v-2h2zm0-4h-2v-21h2z"/><path d="m30 28h4v2h-4z"/><path d="m58 44h2v2h-2z"/><path d="m44 28h4v2h-4z"/><path d="m50 19.3v30.7h6v-30.7l-3-4.5zm4 28.7h-2v-2h2zm0-4h-2v-21h2z"/><path d="m22 19.3v30.7h6v-30.7l-3-4.5zm4 28.7h-2v-2h2zm0-4h-2v-21h2z"/><path d="m8 19.3v30.7h6v-30.7l-3-4.5zm4 28.7h-2v-2h2zm0-4h-2v-21h2z"/><path d="m4 44h2v2h-2z"/><path d="m16 44h4v2h-4z"/><path d="m4 28h2v2h-2z"/></svg>