<?xml version="1.0"?>
<svg xmlns="http://www.w3.org/2000/svg" viewBox="0 0 64 64" width="512" height="512"><g id="Gear"><path d="M25.08,33H17.051a14.912,14.912,0,0,0,3.674,8.861L26.4,36.184A6.947,6.947,0,0,1,25.08,33Z"/><path d="M22.139,43.275A14.912,14.912,0,0,0,31,46.949V38.92A6.947,6.947,0,0,1,27.816,37.6Z"/><path d="M31,25.08V17.051a14.912,14.912,0,0,0-8.861,3.674L27.816,26.4A6.947,6.947,0,0,1,31,25.08Z"/><circle cx="32" cy="32" r="5"/><path d="M41.861,20.725A14.912,14.912,0,0,0,33,17.051V25.08A6.947,6.947,0,0,1,36.184,26.4Z"/><path d="M26.4,27.816l-5.677-5.677A14.912,14.912,0,0,0,17.051,31H25.08A6.947,6.947,0,0,1,26.4,27.816Z"/><path d="M60,34V30H51.751a1,1,0,0,1-.989-.851,18.925,18.925,0,0,0-1.08-4.067,1,1,0,0,1,.43-1.23l7.137-4.121-2-3.462-7.135,4.118a1,1,0,0,1-1.28-.241,19.261,19.261,0,0,0-2.98-2.98,1,1,0,0,1-.241-1.28l4.118-7.135-3.462-2-4.121,7.137a1,1,0,0,1-1.23.43,18.925,18.925,0,0,0-4.067-1.08A1,1,0,0,1,34,12.249V4H30v8.249a1,1,0,0,1-.851.989,18.925,18.925,0,0,0-4.067,1.08,1,1,0,0,1-1.23-.43L19.731,6.751l-3.462,2,4.118,7.135a1,1,0,0,1-.241,1.28,19.261,19.261,0,0,0-2.98,2.98,1,1,0,0,1-1.28.241L8.751,16.269l-2,3.462,7.137,4.121a1,1,0,0,1,.43,1.23,18.925,18.925,0,0,0-1.08,4.067,1,1,0,0,1-.989.851H4v4h8.249a1,1,0,0,1,.989.851,18.925,18.925,0,0,0,1.08,4.067,1,1,0,0,1-.43,1.23L6.751,44.269l2,3.462,7.135-4.118a1,1,0,0,1,1.28.241,19.261,19.261,0,0,0,2.98,2.98,1,1,0,0,1,.241,1.28l-4.118,7.135,3.462,2,4.121-7.137a1,1,0,0,1,1.23-.43,18.925,18.925,0,0,0,4.067,1.08,1,1,0,0,1,.851.989V60h4V51.751a1,1,0,0,1,.851-.989,18.925,18.925,0,0,0,4.067-1.08,1,1,0,0,1,1.23.43l4.121,7.137,3.462-2-4.118-7.135a1,1,0,0,1,.241-1.28,19.261,19.261,0,0,0,2.98-2.98,1,1,0,0,1,1.28-.241l7.135,4.118,2-3.462-7.137-4.121a1,1,0,0,1-.43-1.23,18.925,18.925,0,0,0,1.08-4.067A1,1,0,0,1,51.751,34ZM32,49A17,17,0,1,1,49,32,17.019,17.019,0,0,1,32,49Z"/><path d="M37.6,27.816A6.947,6.947,0,0,1,38.92,31h8.029a14.912,14.912,0,0,0-3.674-8.861Z"/><path d="M33,38.92v8.029a14.912,14.912,0,0,0,8.861-3.674L36.184,37.6A6.947,6.947,0,0,1,33,38.92Z"/><path d="M37.6,36.184l5.677,5.677A14.912,14.912,0,0,0,46.949,33H38.92A6.947,6.947,0,0,1,37.6,36.184Z"/></g></svg>
