<?xml version="1.0"?>
<svg xmlns="http://www.w3.org/2000/svg" viewBox="0 0 64 64" width="512" height="512"><g id="Glove"><rect x="7" y="56" width="14" height="4"/><path d="M27.1,19.248a2.007,2.007,0,0,0-2.738.724l-4.5,7.541A1,1,0,0,1,18,27V17a1.012,1.012,0,0,1,.071-.372l2.982-7.453a.847.847,0,0,0-.086-.8.887.887,0,0,0-1.5.163L16,17.193V27H14V4.948a1,1,0,0,0-2,0V27H10V9H9.985A.993.993,0,1,0,8,8.993V27H6V13a.957.957,0,0,0-.288-.694.993.993,0,0,0-.965-.277A1.065,1.065,0,0,0,4,13.089V27.934L5.876,42h16.21L23,31.91a1,1,0,0,1,.1-.352l4.7-9.53a2.057,2.057,0,0,0,.3-1.048A2,2,0,0,0,27.1,19.248Z"/><rect x="43" y="56" width="14" height="4"/><path d="M18,52a3,3,0,0,1-2.816-2H5v4H23V50H20.816A3,3,0,0,1,18,52Z"/><circle cx="18" cy="49" r="1"/><path d="M5,48H15.184a2.982,2.982,0,0,1,5.632,0H23V44H5Z"/><path d="M41,48h2.184a2.982,2.982,0,0,1,5.632,0H59V44H41Z"/><path d="M59.253,12.029a.988.988,0,0,0-.946.258A.975.975,0,0,0,58,13V27H56V8.993A.993.993,0,1,0,54.015,9H54V27H52V4.948a1,1,0,0,0-2,0V27H48V17.193L44.538,8.539a.886.886,0,0,0-1.5-.163.847.847,0,0,0-.086.8l2.982,7.453A1.012,1.012,0,0,1,46,17V27a1,1,0,0,1-1.858.513l-4.5-7.53a2,2,0,0,0-3.742,1,1.969,1.969,0,0,0,.267.992l4.73,9.586a1,1,0,0,1,.1.352L41.914,42h16.21L60,27.934V13.089A1.065,1.065,0,0,0,59.253,12.029Z"/><circle cx="46" cy="49" r="1"/><path d="M46,52a3,3,0,0,1-2.816-2H41v4H59V50H48.816A3,3,0,0,1,46,52Z"/></g></svg>
