<svg height="512" viewBox="0 0 64 64" width="512" xmlns="http://www.w3.org/2000/svg"><path d="m52.373 44h-1.031a19.859 19.859 0 0 1 -.631 2h1.064a20.676 20.676 0 0 0 .598-2z"/><path d="m29 19a3 3 0 0 0 6 0v-12a3 3 0 0 0 -6 0zm2-13h2v2h-2zm0 4h2v10h-2z"/><path d="m13.289 46a19.859 19.859 0 0 1 -.631-2h-1.031a20.676 20.676 0 0 0 .6 2z"/><path d="m11.051 40q.048 1.014.189 2h1.01a19.944 19.944 0 0 1 -.2-2z"/><path d="m32 57a18.006 18.006 0 0 0 17.949-17h-35.9a18.006 18.006 0 0 0 17.951 17z"/><path d="m52.949 40h-1a19.944 19.944 0 0 1 -.2 2h1.01q.141-.987.19-2z"/><path d="m57 32h-50a3 3 0 0 0 0 6h50a3 3 0 0 0 0-6zm-49 4h-2v-2h2zm8 0h-6v-2h6zm38 0h-6v-2h6zm4 0h-2v-2h2z"/><path d="m49.836 48a19.96 19.96 0 0 1 -35.672 0h-1.109a20.955 20.955 0 0 0 37.89 0z"/><path d="m10 27v3h44v-3a18.955 18.955 0 0 0 -17-18.868v10.868a5 5 0 0 1 -10 0v-10.868a18.955 18.955 0 0 0 -17 18.868zm31-15h2v12h-2zm-18 12h-2v-12h2z"/></svg>