<svg height="512" viewBox="0 0 64 64" width="512" xmlns="http://www.w3.org/2000/svg"><path d="m30.949 29a9.945 9.945 0 0 0 -2.211-5.324l-2.081 2.081-1.414-1.414 2.081-2.081a9.945 9.945 0 0 0 -5.324-2.211v2.949h-2v-2.949a9.945 9.945 0 0 0 -5.324 2.211l2.081 2.081-1.414 1.414-2.081-2.081a9.945 9.945 0 0 0 -2.211 5.324h2.949v2h-2.949a9.945 9.945 0 0 0 2.211 5.324l2.081-2.081 1.414 1.414-2.081 2.081a9.945 9.945 0 0 0 5.324 2.211v-2.949h2v2.949a9.945 9.945 0 0 0 5.324-2.211l-2.081-2.081 1.414-1.414 2.081 2.081a9.945 9.945 0 0 0 2.211-5.324h-2.949v-2zm-9.949 6a5 5 0 1 1 5-5 5.006 5.006 0 0 1 -5 5z"/><path d="m41 31h-1v3h2v-2a1 1 0 0 0 -1-1z"/><circle cx="21" cy="30" r="3"/><path d="m40 39h1a1 1 0 0 0 1-1v-2h-2z"/><path d="m38 30.432c0-9.285-7.348-17.1-16.379-17.421-.21-.011-.421-.011-.627-.011a17 17 0 0 0 -16.994 17v10a10.927 10.927 0 0 0 .764 4h33.236zm-30 11.568h-2v-2h2zm13 0a12 12 0 1 1 12-12 12.013 12.013 0 0 1 -12 12zm15 0h-2v-2h2z"/><path d="m40 46h16v2h-16z"/><path d="m38 51v-5h-32.208a11 11 0 0 0 8.208 4.949v-2.949h2v3h2v-3h2v3h2v-3h2v3h2v-3h2v3h2v-3h2v3h2v-3h2v3z"/><path d="m58 46h2v4h-2z"/></svg>