<svg height="512" viewBox="0 0 64 64" width="512" xmlns="http://www.w3.org/2000/svg"><path d="m27 38h-1v10h28v-14h-25.484l-.527 3.164a1 1 0 0 1 -.989.836z"/><path d="m4.181 14 2.664 16h20.31l2.664-16h-7.819v7a3 3 0 0 1 -6 0v-2a1 1 0 0 0 -2 0v6a3 3 0 0 1 -6 0v-11z"/><path d="m17 60a3 3 0 0 0 3-3v-19h-6v19a3 3 0 0 0 3 3z"/><path d="m26.821 32h-19.642l.666 4h18.31z"/><path d="m19 22a1 1 0 0 0 1-1v-7h-10v11a1 1 0 0 0 2 0v-6a3 3 0 0 1 6 0v2a1 1 0 0 0 1 1z"/><path d="m39 20a1 1 0 0 0 1-1v-6a3 3 0 0 1 6 0v10a1 1 0 0 0 2 0v-6a3 3 0 0 1 6 0v10a1 1 0 0 0 2 0v-23h-18v15a1 1 0 0 0 1 1z"/><path d="m60 59v-51h-2v19a3 3 0 0 1 -6 0v-10a1 1 0 0 0 -2 0v6a3 3 0 0 1 -6 0v-10a1 1 0 0 0 -2 0v6a3 3 0 0 1 -6 0v-11h-18v4h13a1 1 0 0 1 .986 1.164l-3.137 18.836h26.151a1 1 0 0 1 1 1v16a1 1 0 0 1 -1 1h-30a1 1 0 0 1 -1-1v-11h-2v19a4.948 4.948 0 0 1 -1.026 3h38.026a1 1 0 0 0 1-1z"/><path d="m58 4h2v2h-2z"/><path d="m18 4h18v2h-18z"/></svg>