<svg height="512" viewBox="0 0 64 64" width="512" xmlns="http://www.w3.org/2000/svg"><path d="m47 60h12a1 1 0 0 0 0-2h-12a1 1 0 0 0 0 2z"/><path d="m47 31a1 1 0 0 0 0 2h12a1 1 0 0 0 0-2z"/><path d="m32 18a1 1 0 0 0 1-1v-12a1 1 0 0 0 -2 0v12a1 1 0 0 0 1 1z"/><path d="m48 35h10v21h-10z"/><path d="m56 6h-21v10h10a3 3 0 0 1 3 3v10h10v-21a2 2 0 0 0 -2-2z"/><path d="m6 35h10v21h-10z"/><path d="m5 31a1 1 0 0 0 0 2h12a1 1 0 0 0 0-2z"/><path d="m29 16v-10h-20a3 3 0 0 0 -3 3v20h10v-10a3 3 0 0 1 3-3z"/><path d="m5 60h12a1 1 0 0 0 0-2h-12a1 1 0 0 0 0 2z"/></svg>