<svg fill="#ffffff" height="512" viewBox="0 0 64 64" width="512" xmlns="http://www.w3.org/2000/svg"><path d="m33 32a1 1 0 0 0 -1 1v3h2v-3a1 1 0 0 0 -1-1z"/><path d="m26 36h4v-3a3 3 0 0 1 6 0v3h4v-10h-14z"/><path d="m33 14.562-7.865 9.438h15.73z"/><path d="m41 16h-2v2.638l2 2.4z"/><path d="m40 43.414v6.586h2v-6.586l-1-1z"/><path d="m24 43.414v6.586h2v-6.586l-1-1z"/><path d="m32 43.414v6.586h2v-6.586l-1-1z"/><path d="m4 44.105a6.991 6.991 0 0 1 10 0v-35.105a5 5 0 0 0 -10 0z"/><path d="m54 54.838v-49.838a1 1 0 0 0 -2 0v49.838l1 3z"/><path d="m56 10h4v44h-4z"/><path d="m15 50a1 1 0 0 1 -1-1 5 5 0 1 0 -5 5h41v-44h-34v39a1 1 0 0 1 -1 1zm29 1a1 1 0 0 1 -1 1h-4a1 1 0 0 1 -1-1v-3h-2v3a1 1 0 0 1 -1 1h-4a1 1 0 0 1 -1-1v-3h-2v3a1 1 0 0 1 -1 1h-4a1 1 0 0 1 -1-1v-8a1 1 0 0 1 .293-.707l2-2a1 1 0 0 1 1.414 0l2 2a1 1 0 0 1 .293.707v3h2v-3a1 1 0 0 1 .293-.707l2-2a1 1 0 0 1 1.414 0l2 2a1 1 0 0 1 .293.707v3h2v-3a1 1 0 0 1 .293-.707l2-2a1 1 0 0 1 1.414 0l2 2a1 1 0 0 1 .293.707zm-10.232-38.64 3.232 3.878v-1.238a1 1 0 0 1 1-1h4a1 1 0 0 1 1 1v8.438l.768.922a1 1 0 0 1 -.768 1.64h-1v11a1 1 0 0 1 -1 1h-16a1 1 0 0 1 -1-1v-11h-1a1 1 0 0 1 -.768-1.64l10-12a1.033 1.033 0 0 1 1.536 0zm-15.768-.36h8v2h-8zm0 4h6v2h-6zm0 4h4v2h-4z"/></svg>