<svg height="512" viewBox="0 0 64 64" width="512" xmlns="http://www.w3.org/2000/svg"><path d="m21 8a1 1 0 0 0 -1 1v9h2v-9a1 1 0 0 0 -1-1z"/><path d="m12 39a3 3 0 0 0 6 0v-30a3 3 0 0 1 6 0v12a3 3 0 0 0 6 0v-17h-18z"/><path d="m47 4h-15v14h15a1 1 0 0 0 1-1v-12a1 1 0 0 0 -1-1z"/><path d="m4 9h2v4h-2z"/><path d="m8 5v12a1 1 0 0 0 1 1h1v-14h-1a1 1 0 0 0 -1 1z"/><path d="m54 12h3a1 1 0 0 1 1 1v9.429a1 1 0 0 1 -.664.942l-23.336 8.334v10.295h2v-8.429a1 1 0 0 1 .664-.942l23.336-8.329v-14.3h-6z"/><path d="m50 9h2v4h-2z"/><path d="m31 44h8v16h-8z"/></svg>