<svg height="512" viewBox="0 0 64 64" width="512" xmlns="http://www.w3.org/2000/svg"><path d="m5.414 60h30.586v-10h-20.586zm11.586-7a1 1 0 0 1 1-1h15a1 1 0 0 1 1 1v4a1 1 0 0 1 -1 1h-15a1 1 0 0 1 -1-1z"/><path d="m27 20.414v16.586h16.586z"/><path d="m14 44h-3v-2h3v-6h-3v-2h3v-6h-3v-2h3v-6h-3v-2h3v-6h-3v-2h3v-6h-10v2h3v2h-3v2h5v2h-5v2h3v2h-3v2h5v2h-5v2h3v2h-3v2h5v2h-5v2h3v2h-3v2h5v2h-5v2h3v2h-3v2h5v2h-5v2h3v2h-3v2h5v2h-5v6.586l10-10z"/><path d="m19 54h13v2h-13z"/><path d="m20 10h3v2h-3v4h3v2h-3v4h3v2h-3v4h3v2h-3v4h3v2h-3v4h3v2h-3v2h7v-3h2v3h4v-3h2v3h4v-3h2v3h7v-10.586l-28-28zm5 8a1 1 0 0 1 1.707-.707l20 20a1 1 0 0 1 -.707 1.707h-20a1 1 0 0 1 -1-1z"/><path d="m50 60h10v-3h-3v-2h3v-2h-5v-2h5v-2h-3v-2h3v-2h-5v-2h5v-2h-3v-2h3v-2h-5v-2h5v-2h-3v-2h3v-2h-5v-2h5v-2h-3v-2h3v-2h-5v-2h5v-2h-3v-2h3v-2h-5v-2h5v-2h-3v-2h3v-3h-10z"/></svg>