<svg height="512" viewBox="0 0 64 64" width="512" xmlns="http://www.w3.org/2000/svg"><path d="m36.429 18.254-1.806-6.74-30.413 10.137 3.3 12.3 2.462 2.031 1.228-3.288a1 1 0 0 1 1.573-.421l2.707 2.235 1.236-3.292a1 1 0 0 1 1.573-.42l2.711 2.234 1.235-3.292a1 1 0 0 1 1.572-.421l2.717 2.235 1.237-3.294a1 1 0 0 1 1.573-.421l2.707 2.235 1.234-3.292a1 1 0 0 1 1.574-.421l2.707 2.235 1.233-3.294a1 1 0 0 1 1.57-.422l2.729 2.236.3-.8-6.744-7.66a.993.993 0 0 1 -.215-.4zm-23.742 7.523a3 3 0 1 1 -3.374-4.4 3.007 3.007 0 0 1 3.674 2.123 2.973 2.973 0 0 1 -.3 2.277z"/><path d="m40.93 11.872.991 3.698 6.026 6.845 5.748-1.54-3.106-11.591z"/><path d="m10.089 23.276a1 1 0 0 0 -.258.035 1 1 0 0 0 -.241 1.832 1 1 0 1 0 .5-1.867z"/><path d="m57.559 19.839-3.106-11.59a1 1 0 0 1 -.027-.378l.463-3.88-18.858 5.052 2.269 8.468 8.286 9.41 13.479-3.612-2.341-3.129a.99.99 0 0 1 -.165-.341zm-1.773 2.243a1 1 0 0 1 -.607.466l-7.314 1.959a.994.994 0 0 1 -1.01-.3l-6.59-7.486a.993.993 0 0 1 -.215-.4l-1.311-4.89a1 1 0 0 1 .707-1.225l11.591-3.113a1 1 0 0 1 1.225.707l3.624 13.523a1 1 0 0 1 -.1.759z"/><path d="m32 38a9 9 0 1 0 9 9 9.01 9.01 0 0 0 -9-9zm0 16a7 7 0 1 1 7-7 7.008 7.008 0 0 1 -7 7z"/><path d="m32 42a5 5 0 1 0 5 5 5.006 5.006 0 0 0 -5-5zm0 8a3 3 0 1 1 3-3 3 3 0 0 1 -3 3z"/><circle cx="32" cy="47" r="1"/><path d="m32 34a13 13 0 1 0 13 13 13.015 13.015 0 0 0 -13-13zm0 24a11 11 0 1 1 11-11 11.013 11.013 0 0 1 -11 11z"/></svg>