<svg height="512" viewBox="0 0 64 64" width="512" xmlns="http://www.w3.org/2000/svg"><path d="m30 50.723 4-1.6v-2.846l-4 1.6z"/><path d="m4 14h12v6h-12z"/><path d="m7 22h6v2h-6z"/><path d="m30 55.723 2 3.334 2-3.334v-4.446l-4 1.6z"/><path d="m30 40.723 4-1.6v-2.846l-4 1.6z"/><path d="m7 26h6v2h-6z"/><path d="m30 45.723 4-1.6v-2.846l-4 1.6z"/><path d="m7 54h6v2h-6z"/><path d="m30 35.723 4-1.6v-2.846l-4 1.6z"/><path d="m7 30h6v2h-6z"/><path d="m7 58h6v2h-6z"/><path d="m7 46h6v2h-6z"/><path d="m7 50h6v2h-6z"/><path d="m7 42h6v2h-6z"/><path d="m7 34h6v2h-6z"/><path d="m7 38h6v2h-6z"/><path d="m30 20.723 4-1.6v-5.123h-4z"/><path d="m50 31.723 4-1.6v-2.846l-4 1.6z"/><path d="m50 26.723 4-1.6v-2.846l-4 1.6z"/><path d="m50 36.723 4-1.6v-2.846l-4 1.6z"/><path d="m50 41.723 4-1.6v-2.846l-4 1.6z"/><path d="m50 21.723 4-1.6v-2.846l-4 1.6z"/><path d="m50 16.723 4-1.6v-5.123h-4z"/><path d="m30 30.723 4-1.6v-2.846l-4 1.6z"/><path d="m46.618 8h10.764l2-4h-14.764z"/><path d="m30 25.723 4-1.6v-2.846l-4 1.6z"/><path d="m35 8h-6a3 3 0 0 0 -3 3v1h12v-1a3 3 0 0 0 -3-3z"/><path d="m50 55.723 2 3.334 2-3.334v-3.446l-4 1.6z"/><path d="m50 46.723 4-1.6v-2.846l-4 1.6z"/><path d="m50 51.723 4-1.6v-2.846l-4 1.6z"/></svg>