<svg height="512" viewBox="0 0 64 64" width="512" xmlns="http://www.w3.org/2000/svg"><g id="Screwdriver-2" data-name="Screwdriver"><path d="m9 4.803-1 1.5v25.697h2v-25.697z"/><path d="m5 60h8a1 1 0 0 0 0-2h-8a1 1 0 0 0 0 2z"/><path d="m4 35a1 1 0 0 0 1 1h8a1 1 0 0 0 0-2h-8a1 1 0 0 0 -1 1z"/><path d="m6 38h6v18h-6z"/><path d="m25 35a1 1 0 0 0 1 1h10a1 1 0 0 0 0-2h-10a1 1 0 0 0 -1 1z"/><path d="m29 6.414v25.586h4v-25.586l-1-1v3.586h-2v-3.586z"/><path d="m27 38h8v18h-8z"/><path d="m26 60h10a1 1 0 0 0 0-2h-10a1 1 0 0 0 0 2z"/><path d="m48 35a1 1 0 0 0 1 1h10a1 1 0 0 0 0-2h-10a1 1 0 0 0 -1 1z"/><path d="m55 32v-19.994a.984.984 0 0 1 .03-.242l.946-3.788-.796-3.976h-2.36l-.8 3.975.945 3.754a1.021 1.021 0 0 1 .03.245v20.026z"/><path d="m50 38h8v18h-8z"/><path d="m49 60h10a1 1 0 0 0 0-2h-10a1 1 0 0 0 0 2z"/></g></svg>