<svg height="512" viewBox="0 0 64 64" width="512" xmlns="http://www.w3.org/2000/svg"><path d="m47 36h2v10h-2z"/><path d="m41 33.414-2 2v10.586h2z"/><path d="m33 34.303-1-1.5-1 1.5v11.697h2z"/><path d="m4 60h56v-12h-56zm51-10h2v2h-2zm0 4h2v4h-2zm-8-4h2v2h-2zm0 4h2v4h-2zm-8-4h2v2h-2zm0 4h2v4h-2zm-8-4h2v2h-2zm0 4h2v4h-2zm-8-4h2v2h-2zm0 4h2v4h-2zm-8-4h2v2h-2zm0 4h2v4h-2zm-8-4h2v2h-2zm0 4h2v4h-2z"/><path d="m55 32h2v14h-2z"/><path d="m25 36.192-1-2.5-1 2.5v9.808h2z"/><path d="m17 38.14-1-3.5-1 3.5v7.86h2z"/><path d="m9 40.109-1-4.5-1 4.5v5.891h2z"/><path d="m14 7h2v6h-2z"/><path d="m8 8h4v4h-4z"/><path d="m18 6h38v8h-38z"/><path d="m4 7h2v6h-2z"/><path d="m59 4a1 1 0 0 0 -1 1v10a1 1 0 0 0 2 0v-10a1 1 0 0 0 -1-1z"/><path d="m59 23v-2h-2v2h-48.808l-2.5 1 2.5 1h48.808v2h2v-2h1v-2z"/></svg>