<svg height="512" viewBox="0 0 64 64" width="512" xmlns="http://www.w3.org/2000/svg"><path d="m46 16h2v2h-2z"/><path d="m42 4h10v2h-10z"/><path d="m19.72 8h-5.44l1.5 6h2.44z"/><path d="m20 41a1 1 0 0 1 -1 1h-4a1 1 0 0 1 -1-1v-3h-6v11.328a5.008 5.008 0 0 0 1.655 3.716l7.345 6.61 7.345-6.61a5.008 5.008 0 0 0 1.655-3.716v-11.328h-6zm-8 5h-2v-4h2zm10-4h2v4h-2z"/><path d="m16 21h2v19h-2z"/><path d="m46 20h2v20h-2z"/><path d="m16 16h2v3h-2z"/><path d="m50 38v3a1 1 0 0 1 -1 1h-4a1 1 0 0 1 -1-1v-3h-4.08l-1.833 22h17.826l-1.833-22zm-7 9h-2v-4h2zm10 0h-2v-4h2z"/><path d="m49.72 8h-5.44l1.5 6h2.44z"/><path d="m12 4h10v2h-10z"/></svg>