<svg height="512" viewBox="0 0 64 64" width="512" xmlns="http://www.w3.org/2000/svg"><path d="m13 46a7 7 0 1 0 7 7 7.008 7.008 0 0 0 -7-7zm0 11a4 4 0 1 1 4-4 4 4 0 0 1 -4 4z"/><path d="m11 14h2v12h-2z"/><path d="m34 48.685v-8.685h-26v5.522a8.982 8.982 0 0 1 13.941 8.478h2.139a6.974 6.974 0 0 1 9.92-5.315z"/><circle cx="31" cy="55" r="1"/><path d="m11 28h10v2h-10z"/><path d="m11 8v4h3a1 1 0 0 1 1 1v13h7a1 1 0 0 1 1 1v3h6v-7.994h-2v1.994h-2v-6h2v2.006h2v-7.935l-4.073-4.071z"/><path d="m26.58 4h-19.58v30h26v-23.59zm4.42 27a1 1 0 0 1 -1 1h-20a1 1 0 0 1 -1-1v-24a1 1 0 0 1 1-1h15.34a1.033 1.033 0 0 1 .71.29l4.66 4.66a1.033 1.033 0 0 1 .29.71z"/><circle cx="13" cy="53" r="2"/><path d="m4 53a8.955 8.955 0 0 1 2-5.644v-8.356a1 1 0 0 1 1-1h28a1 1 0 0 1 1 1v11.11a6.977 6.977 0 0 1 1.92 3.89h.08v-18h-34z"/><path d="m52 60h8v-2h-3a1 1 0 0 1 -1-1v-8a1 1 0 0 1 1-1h3v-2h-8z"/><path d="m46 51v-18a1 1 0 0 0 -1-1h-10v2h8a1 1 0 0 1 1 1v18a1 1 0 0 0 1 1h5v-2h-3a1 1 0 0 1 -1-1z"/><path d="m31 50a5 5 0 1 0 5 5 5 5 0 0 0 -5-5zm0 8a3 3 0 1 1 3-3 3.009 3.009 0 0 1 -3 3z"/></svg>