<svg height="512" viewBox="0 0 64 64" width="512" xmlns="http://www.w3.org/2000/svg"><path d="m4 42h6v8h-6z"/><path d="m4 22h6v8h-6z"/><path d="m4 32h13v8h-13z"/><path d="m33 32h12v8h-12z"/><path d="m40 22h12v8h-12z"/><path d="m4 4h34v6h-34z"/><path d="m4 12h46v8h-46z"/><path d="m26 22h12v8h-12z"/><path d="m19 32h12v8h-12z"/><path d="m12 22h12v8h-12z"/><path d="m4 52h13v8h-13z"/><path d="m47 52h13v8h-13z"/><path d="m47 32h13v8h-13z"/><path d="m40 42h12v8h-12z"/><path d="m54 22h6v8h-6z"/><path d="m54 42h6v8h-6z"/><path d="m12 42h12v8h-12z"/><path d="m19 52h12v8h-12z"/><path d="m26 42h12v8h-12z"/><path d="m33 52h12v8h-12z"/></svg>