<svg fill="#ffffff" height="512" viewBox="0 0 64 64" width="512" xmlns="http://www.w3.org/2000/svg"><path d="m24 30h26v10h-26z"/><path d="m46 53a7 7 0 1 0 7-7 7.009 7.009 0 0 0 -7 7zm12 0a5 5 0 1 1 -5-5 5.006 5.006 0 0 1 5 5z"/><circle cx="53" cy="53" r="3"/><path d="m4 17h4v4h-4z"/><path d="m25 58.764 2.382-4.764h-4.764z"/><path d="m19.819 52h24.24a9 9 0 0 1 11.635-7.587l4.086-20.413h-45.56zm2.181-23a1 1 0 0 1 1-1h28a1 1 0 0 1 1 1v12a1 1 0 0 1 -1 1h-28a1 1 0 0 1 -1-1z"/><path d="m55.25 12.377a1 1 0 0 1 -.627-.627 6.983 6.983 0 0 0 -10.138-3.8 1 1 0 0 1 -1.377-.374 6.994 6.994 0 0 0 -11.594-.917.977.977 0 0 1 -.868.374c-.212-.014-.425-.033-.646-.033a6.989 6.989 0 0 0 -6.623 4.75 1 1 0 0 1 -.627.627 6.989 6.989 0 0 0 -4.75 6.623 6.88 6.88 0 0 0 .7 3h40.61a6.88 6.88 0 0 0 .7-3 6.989 6.989 0 0 0 -4.76-6.623z"/><path d="m10 18v2h2v2h2v-2-2z"/></svg>