<svg height="512" viewBox="0 0 64 64" width="512" xmlns="http://www.w3.org/2000/svg"><path d="m31 27h2v4h-2z"/><path d="m31 33h2v4h-2z"/><path d="m31 39h2v4h-2z"/><path d="m31 45h2v4h-2z"/><path d="m31 21h2v4h-2z"/><path d="m56 15h-11v34h11zm-9.243 6 4.243-4.242 1.414 1.414-4.243 4.242zm3.536 3.535-1.414-1.414 4.243-4.242 1.414 1.414z"/><path d="m29 15h-11v34h11zm-9.243 6 4.243-4.242 1.414 1.414-4.243 4.242zm3.536 3.535-1.414-1.414 4.243-4.242 1.414 1.414z"/><path d="m31 15h2v4h-2z"/><path d="m35 15h8v34h-8z"/><path d="m14 33h2v4h-2z"/><path d="m14 39h2v4h-2z"/><path d="m8 15h4v34h-4z"/><path d="m14 45h2v4h-2z"/><path d="m14 27h2v4h-2z"/><path d="m60 53v-42h-56v42zm-54-39a1 1 0 0 1 1-1h50a1 1 0 0 1 1 1v36a1 1 0 0 1 -1 1h-50a1 1 0 0 1 -1-1z"/><path d="m14 15h2v4h-2z"/><path d="m14 21h2v4h-2z"/></svg>