<svg xmlns="http://www.w3.org/2000/svg" viewBox="0 0 367 364" width="367" height="364">
	<style>
		tspan { white-space:pre }
		.shp0 { fill: #ffffff } 
		.shp1 { fill: none;stroke: #ffffff;stroke-width: 10 } 
	</style>
	<g id="Web_1920_1">
		<g id="Group_5">
			<g id="Group_4">
				<g id="Group_1">
					<path id="Path_1" class="shp0" d="M184.89 90.44L141.12 210.37C141.72 212.13 142.58 215.87 141.26 211.27L140.79 211.27L97.15 90.44L93.83 90.44L93.83 147.3C94.09 148.19 94.34 149.1 94.6 149.98C96.61 156.8 99.16 164.26 102.26 172.35L120.67 230.14L155.18 230.14L179.78 172.35C182.88 164.26 185.43 156.8 187.44 149.98C187.44 149.98 189.38 142.77 193.24 128.36L193.94 128.36C193.32 132.24 192.74 136.37 192.2 140.75C192.2 140.75 191.74 145.13 190.81 153.9C190.42 158.28 190.11 162.49 189.88 166.53C189.65 170.58 189.53 174.21 189.53 152.64L189.53 236.06L214.15 259.55L214.14 90.45L184.89 90.44Z" />
					<path id="Path_2" class="shp0" d="M140.79 211.27L141.12 210.37C140.77 209.35 140.51 209 140.79 211.27Z" />
				</g>
				<g id="Group_2">
					<path id="Path_3" class="shp0" d="M57.72 89.75L83.25 89.48L83.25 249.84L184.92 249.84L209.68 272.46L57.72 272.46L57.72 89.75Z" />
				</g>
				<g id="Group_3">
					<path id="Path_4" class="shp0" d="M227.45 120.86C236.01 113.94 247.02 110.48 260.49 110.47C262 110.48 263.51 110.53 265.02 110.62C266.54 110.72 268.04 110.86 269.55 111.04C271.05 111.23 272.55 111.46 274.04 111.73C275.53 112 277.01 112.32 278.48 112.68C279.98 113.04 281.48 113.45 282.95 113.9C284.43 114.36 285.9 114.87 287.34 115.42C288.79 115.97 290.21 116.57 291.62 117.22C293.03 117.86 294.41 118.56 295.77 119.29L303.2 96.31C289.89 89.35 274.88 85.87 258.17 85.87C255.58 85.84 253 85.92 250.42 86.11C247.84 86.3 245.27 86.6 242.71 87.01C240.16 87.41 237.63 87.93 235.12 88.56C232.61 89.18 230.13 89.91 227.68 90.75L227.45 120.86Z" />
					<path id="Path_5" class="shp0" d="M270.16 171.51L270.16 196.57L281.77 196.57L281.77 205.86C281.79 207.07 281.76 208.29 281.67 209.5C281.57 210.71 281.43 211.92 281.22 213.11C281.02 214.31 280.76 215.5 280.44 216.67C280.12 217.84 279.75 219 279.33 220.13C278.97 221.09 278.55 222.03 278.09 222.94C277.63 223.85 277.12 224.74 276.57 225.6C276.01 226.45 275.41 227.28 274.77 228.08C274.12 228.87 273.44 229.63 272.71 230.35C272.02 231.02 271.3 231.66 270.54 232.25C269.78 232.84 268.99 233.39 268.17 233.9C267.35 234.41 266.5 234.87 265.63 235.28C264.76 235.7 263.87 236.07 262.96 236.38C262.02 236.72 261.05 237.01 260.08 237.26C259.11 237.51 258.12 237.71 257.13 237.88C256.14 238.04 255.14 238.17 254.14 238.25C253.14 238.33 252.13 238.36 251.12 238.36C249.75 238.37 248.37 238.3 247 238.14C245.64 237.98 244.28 237.74 242.94 237.42C241.6 237.1 240.28 236.69 238.99 236.21C237.7 235.73 236.45 235.17 235.22 234.53C232.75 233.23 230.45 231.66 228.02 230.23L228.08 259.55C233.85 260.7 239.39 262.96 245.55 262.96C254.84 262.96 262.38 260.99 268.18 257.05C269.58 256.12 270.91 255.11 272.19 254.03C273.46 252.95 274.68 251.8 275.82 250.58C276.96 249.36 278.03 248.08 279.03 246.73C280.02 245.39 280.93 243.99 281.77 242.54L281.92 273.25L311.01 273.25L311.01 171.51L290.36 156.03L270.16 171.51Z" />
				</g>
				<path id="Rectangle_2" class="shp0" d="M189.88 120.86L198.54 120.86L198.54 166.53L189.88 166.53L189.88 120.86Z" />
			</g>
			<path id="Rectangle_3" class="shp0" d="M300.23 157.76L306.16 157.76L306.16 172.2L300.23 172.2L300.23 157.76Z" />
		</g>
		<path id="Ellipse_1" class="shp1" d="M306.52 305.35C237.74 374.13 126.55 374.13 57.77 305.35C-11.01 236.57 -11.01 125.37 57.77 56.6C126.55 -12.18 237.74 -12.18 306.52 56.6C375.3 125.37 375.3 236.57 306.52 305.35Z" />
	</g>
</svg>